<svg width="94" height="94" viewBox="0 0 94 94" fill="none" xmlns="http://www.w3.org/2000/svg">
    <g clip-path="url(#t0je78vy6a)">
        <path d="M47 86.167C25.368 86.167 7.834 68.632 7.834 47S25.367 7.833 47 7.833c21.632 0 39.167 17.535 39.167 39.167S68.632 86.167 47 86.167zm-8.969-9.138a70.11 70.11 0 0 1-6.592-26.112H15.91a31.364 31.364 0 0 0 22.122 26.112zm1.253-26.112A62.332 62.332 0 0 0 47 77.362a62.295 62.295 0 0 0 7.716-26.445H39.284zm38.807 0H62.56a70.108 70.108 0 0 1-6.592 26.112 31.365 31.365 0 0 0 22.122-26.112zM15.91 43.083h15.53a70.11 70.11 0 0 1 6.591-26.112A31.365 31.365 0 0 0 15.91 43.083zm23.378 0h15.424A62.296 62.296 0 0 0 47 16.638a62.295 62.295 0 0 0-7.716 26.445h.004zM55.97 16.971a70.108 70.108 0 0 1 6.592 26.112h15.53a31.365 31.365 0 0 0-22.122-26.112z" fill="#fff"/>
    </g>
    <defs>
        <clipPath id="t0je78vy6a">
            <path fill="#fff" d="M0 0h94v94H0z"/>
        </clipPath>
    </defs>
</svg>
