<svg width="100" height="100" viewBox="0 0 100 100" fill="none" xmlns="http://www.w3.org/2000/svg">
<g clip-path="url(#clip0_111_15962)">
<path d="M50.0002 89.1666C28.3684 89.1666 10.8335 71.6317 10.8335 49.9999C10.8335 28.3682 28.3684 10.8333 50.0002 10.8333C71.6319 10.8333 89.1668 28.3682 89.1668 49.9999C89.1668 71.6317 71.6319 89.1666 50.0002 89.1666ZM37.8193 54.5824L37.8702 54.555L41.2777 65.7958C41.7164 67.0139 42.3196 67.2333 43.052 67.1314C43.7883 67.0335 44.1761 66.6379 44.6578 66.1757L49.3108 61.6794L59.2983 69.0741C61.1235 70.0807 62.4356 69.5597 62.8899 67.3821L69.3798 36.7459C70.0966 33.8946 68.8432 32.7509 66.6303 33.6596L28.5094 48.3863C25.9087 49.4281 25.9244 50.8851 28.0394 51.5313L37.8193 54.5863V54.5824Z" fill="white"/>
</g>
<defs>
<clipPath id="clip0_111_15962">
<rect width="94" height="94" fill="white" transform="translate(3 3)"/>
</clipPath>
</defs>
</svg>
