<svg width="100" height="100" viewBox="0 0 100 100" fill="none" xmlns="http://www.w3.org/2000/svg">
<g clip-path="url(#clip0_111_15974)">
<path d="M89.8012 25.1526C86.811 26.4753 83.6401 27.3439 80.3934 27.7298C83.8155 25.6831 86.3769 22.4619 87.6 18.6666C84.3884 20.578 80.8673 21.9175 77.1974 22.642C74.7322 20.0045 71.4648 18.2552 67.9029 17.6662C64.3411 17.0773 60.6845 17.6815 57.5015 19.3851C54.3185 21.0887 51.7875 23.7962 50.3021 27.0866C48.8166 30.3771 48.4598 34.0661 49.2872 37.5802C42.7742 37.2538 36.4027 35.5613 30.5862 32.6126C24.7698 29.6639 19.6385 25.5249 15.5255 20.4644C14.0697 22.965 13.3046 25.8076 13.3087 28.7011C13.3087 34.3803 16.1992 39.3975 20.5937 42.335C17.9931 42.2532 15.4497 41.5508 13.1755 40.2866V40.4903C13.1763 44.2726 14.4851 47.9383 16.8801 50.8658C19.2751 53.7933 22.6087 55.8024 26.3159 56.5525C23.9018 57.2068 21.3704 57.3032 18.9134 56.8345C19.9587 60.0902 21.9959 62.9375 24.7398 64.9777C27.4838 67.018 30.7971 68.149 34.2159 68.2124C30.8181 70.881 26.9276 72.8536 22.767 74.0176C18.6063 75.1816 14.257 75.5141 9.96777 74.9961C17.4553 79.8114 26.1714 82.3678 35.0736 82.3594C65.2045 82.3594 81.6819 57.3985 81.6819 35.7511C81.6819 35.0461 81.6624 34.3333 81.631 33.6361C84.8382 31.3181 87.6063 28.4466 89.8051 25.1565L89.8012 25.1526Z" fill="white"/>
</g>
<defs>
<clipPath id="clip0_111_15974">
<rect width="94" height="94" fill="white" transform="translate(3 3)"/>
</clipPath>
</defs>
</svg>
