<svg width="100" height="100" viewBox="0 0 100 100" fill="none" xmlns="http://www.w3.org/2000/svg">
<g clip-path="url(#clip0_111_15964)">
<path d="M42.4643 46.0833C44.8143 46.0833 46.7178 47.8458 46.6748 49.9999C46.6748 52.1541 44.8183 53.9166 42.4643 53.9166C40.1535 53.9166 38.25 52.1541 38.25 49.9999C38.25 47.8458 40.1104 46.0833 42.4643 46.0833ZM57.5357 46.0833C59.8896 46.0833 61.75 47.8458 61.75 49.9999C61.75 52.1541 59.8896 53.9166 57.5357 53.9166C55.2248 53.9166 53.3253 52.1541 53.3253 49.9999C53.3253 47.8458 55.1817 46.0833 57.5357 46.0833ZM76.9898 10.8333C81.5448 10.8333 85.25 14.6168 85.25 19.305V93.0833L76.5902 85.2695L71.714 80.6635L66.5557 75.7677L68.6943 83.3778H23.0103C18.4552 83.3778 14.75 79.5943 14.75 74.906V19.305C14.75 14.6168 18.4552 10.8333 23.0103 10.8333H76.9858H76.9898ZM61.4406 64.5425C70.3432 64.2566 73.7703 58.2915 73.7703 58.2915C73.7703 45.0493 67.9658 34.3137 67.9658 34.3137C62.1691 29.8761 56.6466 29.9975 56.6466 29.9975L56.0826 30.6555C62.9328 32.794 66.1132 35.8803 66.1132 35.8803C62.373 33.7731 58.251 32.4311 53.9872 31.9323C51.2825 31.6269 48.5506 31.6532 45.8523 32.0107C45.6094 32.0107 45.4057 32.0538 45.1668 32.0929C43.7568 32.2183 40.3297 32.7509 36.0214 34.6858C34.5331 35.3829 33.644 35.8803 33.644 35.8803C33.644 35.8803 36.9888 32.6295 44.2386 30.491L43.8352 29.9975C43.8352 29.9975 38.3166 29.8761 32.516 34.3176C32.516 34.3176 26.7154 45.0493 26.7154 58.2915C26.7154 58.2915 30.0994 64.2527 39.002 64.5425C39.002 64.5425 40.4903 62.6938 41.7045 61.1311C36.5854 59.5644 34.6545 56.2744 34.6545 56.2744C34.6545 56.2744 35.054 56.5643 35.7786 56.9755C35.8178 57.0147 35.8569 57.0578 35.9392 57.0969C36.0606 57.1831 36.182 57.2223 36.3034 57.3045C37.31 57.8803 38.3166 58.3307 39.2409 58.7028C40.8938 59.3608 42.8677 60.0188 45.1668 60.4731C48.6108 61.1482 52.1519 61.1615 55.6008 60.5123C57.6098 60.1537 59.5697 59.5608 61.4406 58.7458C62.8506 58.2093 64.4212 57.4259 66.074 56.3175C66.074 56.3175 64.0608 59.6898 58.7812 61.2133C59.9914 62.7761 61.4445 64.5425 61.4445 64.5425H61.4406Z" fill="white"/>
</g>
<defs>
<clipPath id="clip0_111_15964">
<rect width="94" height="94" fill="white" transform="translate(3 3)"/>
</clipPath>
</defs>
</svg>
