<svg xmlns="http://www.w3.org/2000/svg" width="16" height="16" fill="none" color="rgba(255,255,255,0.45)">
<path fill="currentColor" d="M11.066 13.4H4.933c-1.266 0-2.266-1-2.266-2.267v-6.2c0-1.2 1-2.266 2.266-2.266h3.133c.267 0 .467.2.467.466 0 .267-.2.467-.466.467H4.932c-.8 0-1.4.6-1.4 1.4v6.2c0 .8.6 1.4 1.4 1.4h6.2c.8 0 1.4-.6 1.4-1.4V8.267c0-.267.2-.467.467-.467s.466.2.466.467V11.2c-.133 1.2-1.133 2.2-2.4 2.2ZM12.8 3.6h-1.934a.456.456 0 0 1-.466-.467c0-.266.2-.466.466-.466H12.8c.266 0 .466.2.466.466 0 .267-.133.467-.466.467Z"></path>
<path fill="currentColor" d="M12.867 5.6a.456.456 0 0 1-.467-.467V3.2c0-.267.2-.467.467-.467.266-.066.466.134.466.467v1.933c0 .267-.133.467-.466.467Z"></path>
<path fill="currentColor" d="M7.533 9c-.133 0-.266-.067-.266-.133-.2-.2-.2-.467 0-.667L12.333 3c.2-.2.467-.2.667 0s.2.467 0 .667l-5.067 5.2c-.2.133-.266.133-.4.133Z"></path>
</svg>
